<?xml version="1.0" standalone="no"?><!DOCTYPE svg PUBLIC "-//W3C//DTD SVG 1.1//EN" "http://www.w3.org/Graphics/SVG/1.1/DTD/svg11.dtd">
<svg t="1680373863297" class="icon" viewBox="102 101 810 810" version="1.1"
  xmlns="http://www.w3.org/2000/svg" p-id="8574"
  xmlns:xlink="http://www.w3.org/1999/xlink">
  <path d="M555.5 562.5H392.7c-8.3 0-15-6.7-15-15s6.7-15 15-15h162.8c49 0 88.9-41.4 88.9-92.2S604.5 348 555.5 348H392.7c-8.3 0-15-6.7-15-15s6.7-15 15-15h162.8c65.6 0 118.9 54.8 118.9 122.2s-53.3 122.3-118.9 122.3z" p-id="8575"></path>
  <path d="M659.4 719.5c-8.3 0-15-6.7-15-15 0-78.3-61.5-142-137.2-142-8.3 0-15-6.7-15-15s6.7-15 15-15c44.6 0 86.6 18 118.2 50.7 31.6 32.6 48.9 75.6 48.9 121.3 0.1 8.3-6.6 15-14.9 15zM392.7 718.9c-8.3 0-15-6.7-15-15V424c0-8.3 6.7-15 15-15s15 6.7 15 15v279.9c0 8.3-6.7 15-15 15z" p-id="8576"></path>
  <path d="M513 922.9c-55.5 0-109.3-10.9-160-32.3-49-20.7-92.9-50.3-130.7-88.1-37.8-37.8-67.4-81.7-88.1-130.7-21.4-50.7-32.3-104.5-32.3-160s10.9-109.3 32.3-160c20.7-49 50.3-92.9 88.1-130.7S304 153.7 353 133c50.7-21.4 104.5-32.3 160-32.3s109.3 10.9 160 32.3c49 20.7 92.9 50.3 130.7 88.1 37.8 37.8 67.4 81.7 88.1 130.7 21.4 50.7 32.3 104.5 32.3 160s-10.9 109.3-32.3 160c-20.7 49-50.3 92.9-88.1 130.7C766 840.3 722 869.9 673 890.6c-50.7 21.5-104.5 32.3-160 32.3z m0-792.2c-210.2 0-381.1 171-381.1 381.1s171 381.1 381.1 381.1 381.1-171 381.1-381.1S723.2 130.7 513 130.7z" p-id="8577"></path>
</svg>
