<?xml version="1.0" standalone="no"?><!DOCTYPE svg PUBLIC "-//W3C//DTD SVG 1.1//EN" "http://www.w3.org/Graphics/SVG/1.1/DTD/svg11.dtd">
<svg t="1680374889694" class="icon" viewBox="0 0 1024 1024" version="1.1"
  xmlns="http://www.w3.org/2000/svg" p-id="50527"
  xmlns:xlink="http://www.w3.org/1999/xlink">
  <path d="M1024 320c0-3.84-1.28-6.4-2.56-10.24L912.64 61.44C896 23.04 860.16 0 819.2 0H203.52c-40.96 0-76.8 23.04-93.44 61.44L2.56 309.76c-1.28 3.84-2.56 6.4-2.56 10.24 0 66.56 35.84 125.44 89.6 158.72V870.4c0 84.48 69.12 153.6 153.6 153.6h537.6c84.48 0 153.6-69.12 153.6-153.6V478.72c53.76-33.28 89.6-92.16 89.6-158.72z m-972.8 5.12l104.96-243.2c8.96-19.2 26.88-30.72 47.36-30.72H819.2c20.48 0 38.4 11.52 47.36 30.72l106.24 243.2c-1.28 49.92-30.72 92.16-72.96 113.92-1.28 0-2.56 1.28-2.56 1.28-17.92 8.96-37.12 14.08-58.88 14.08-35.84 0-70.4-14.08-94.72-39.68-17.92-17.92-42.24-28.16-66.56-26.88-23.04 0-44.8 10.24-61.44 28.16-26.88 28.16-64 44.8-103.68 44.8-39.68 0-76.8-16.64-102.4-44.8-15.36-17.92-37.12-26.88-61.44-28.16H345.6c-24.32 0-47.36 10.24-65.28 26.88-25.6 25.6-58.88 39.68-94.72 39.68C113.92 454.4 53.76 396.8 51.2 325.12zM883.2 870.4c0 56.32-46.08 102.4-102.4 102.4H243.2c-56.32 0-102.4-46.08-102.4-102.4V499.2c15.36 3.84 30.72 6.4 46.08 6.4 48.64 0 96-19.2 130.56-55.04 7.68-7.68 19.2-12.8 29.44-12.8 6.4 0 16.64 2.56 24.32 11.52 34.56 39.68 85.76 62.72 140.8 62.72s104.96-21.76 142.08-62.72c7.68-8.96 17.92-11.52 24.32-11.52 10.24 0 21.76 3.84 29.44 11.52 34.56 35.84 80.64 55.04 130.56 55.04 15.36 0 30.72-2.56 44.8-5.12v371.2z" p-id="50528"></path>
  <path d="M349.44 641.28c-14.08 0-25.6 11.52-25.6 25.6v128c0 14.08 11.52 25.6 25.6 25.6s25.6-11.52 25.6-25.6v-128c0-14.08-11.52-25.6-25.6-25.6z" p-id="50529"></path>
</svg>
