<?xml version="1.0" standalone="no"?><!DOCTYPE svg PUBLIC "-//W3C//DTD SVG 1.1//EN" "http://www.w3.org/Graphics/SVG/1.1/DTD/svg11.dtd">
<svg t="1680856447855" class="icon" viewBox="137 166 780 780" version="1.1"
  xmlns="http://www.w3.org/2000/svg" p-id="3524"
  xmlns:xlink="http://www.w3.org/1999/xlink">
  <path d="M722.405 460.096c47.57 0 86.282 38.612 86.282 86.059L808.686 642h52.177c14.36 0 26 11.64 26 26v163.863c0 14.36-11.64 26-26 26H697c-14.36 0-26-11.64-26-26V668c0-14.36 11.64-26 26-26h54.165v-95.845c0-15.648-12.627-28.428-28.284-28.682l-0.476-0.004H642.02v-0.144H539.902V642h52.961c14.36 0 26 11.64 26 26v163.863c0 14.36-11.64 26-26 26H429c-14.36 0-26-11.64-26-26V668c0-14.36 11.64-26 26-26h53.381V517.325h-99.398v0.144H302.6c-15.876 0-28.76 12.88-28.76 28.686l-0.001 95.547h53.025c14.36 0 26 11.641 26 26v163.864c0 14.36-11.64 26-26 26H163c-14.36 0-26-11.64-26-26V667.703c0-14.36 11.64-26 26-26l53.317-0.001v-95.547c0-47.447 38.712-86.059 86.282-86.059H482.38v-73.3c0-1.707 0.075-3.352 0.218-4.936l-51.408 0.003c-14.465 0-26.191-11.726-26.191-26.191v-163.48C405 177.725 416.726 166 431.191 166h163.481c14.465 0 26.191 11.726 26.191 26.191v163.481c0 14.465-11.726 26.191-26.191 26.191l-54.987-0.003c0.143 1.584 0.217 3.229 0.217 4.936v73.3zM554.672 697h-87.344a9.328 9.328 0 0 0-9.324 9.058l-0.004 0.27v87.344a9.328 9.328 0 0 0 9.058 9.324l0.27 0.004h87.344a9.328 9.328 0 0 0 9.324-9.058l0.004-0.27v-87.344a9.328 9.328 0 0 0-9.328-9.328z m268 0h-87.344a9.328 9.328 0 0 0-9.324 9.058l-0.004 0.27v87.344a9.328 9.328 0 0 0 9.058 9.324l0.27 0.004h87.344a9.328 9.328 0 0 0 9.324-9.058l0.004-0.27v-87.344a9.328 9.328 0 0 0-9.328-9.328z m-534-0.297h-87.344a9.328 9.328 0 0 0-9.324 9.058l-0.004 0.27v87.344a9.328 9.328 0 0 0 9.058 9.324l0.27 0.004h87.344a9.328 9.328 0 0 0 9.324-9.058l0.004-0.27V706.03a9.328 9.328 0 0 0-9.328-9.328z m268-475.703h-87.344a9.328 9.328 0 0 0-9.324 9.058l-0.004 0.27v87.344a9.328 9.328 0 0 0 9.058 9.324l0.27 0.004h87.344a9.328 9.328 0 0 0 9.324-9.058l0.004-0.27v-87.344a9.328 9.328 0 0 0-9.328-9.328z" p-id="3525"></path>
</svg>
